<svg xmlns="http://www.w3.org/2000/svg" version="1.1" xmlns:xlink="http://www.w3.org/1999/xlink" xmlns:svgjs="http://svgjs.dev/svgjs" width="2000" height="1500" viewBox="0 0 2000 1500"><rect width="2000" height="1500" fill="#ffffff"></rect><g transform="matrix(0.75,0,0,0.75,249.090909090909,559.4743985044688)"><svg viewBox="0 0 396 101" data-background-color="#ffffff" preserveAspectRatio="xMidYMid meet" height="510" width="2000" xmlns="http://www.w3.org/2000/svg" xmlns:xlink="http://www.w3.org/1999/xlink"><g id="tight-bounds" transform="matrix(1,0,0,1,0.2400000000000091,-0.19127908222574774)"><svg viewBox="0 0 395.52 101.3825581644515" height="101.3825581644515" width="395.52"><g><svg viewBox="0 0 395.52 101.3825581644515" height="101.3825581644515" width="395.52"><g transform="matrix(1,0,0,1,0,62.65848821214626)"><svg viewBox="0 0 395.52 38.72406995230524" height="38.72406995230524" width="395.52"><g><svg viewBox="0 0 395.52 38.72406995230524" height="38.72406995230524" width="395.52"><g><svg viewBox="0 0 395.52 38.72406995230524" height="38.72406995230524" width="395.52"><g transform="matrix(1,0,0,1,0,0)"><svg width="395.52" viewBox="1.5499999523162842 -36.54999923706055 377.3700256347656 36.95000076293945" height="38.72406995230524" data-palette-color="#6671a0"><path d="M28.5-8.53L28.5-8.53Q29.05-8.53 29.45-8.1L29.45-8.1 32.1-5.23Q29.9-2.5 26.69-1.05 23.48 0.4 18.98 0.4L18.98 0.4Q14.95 0.4 11.74-0.98 8.53-2.35 6.25-4.8 3.98-7.25 2.76-10.65 1.55-14.05 1.55-18.07L1.55-18.07Q1.55-22.15 2.9-25.54 4.25-28.93 6.7-31.38 9.15-33.83 12.56-35.19 15.98-36.55 20.1-36.55L20.1-36.55Q24.13-36.55 27.14-35.26 30.15-33.98 32.3-31.85L32.3-31.85 30.05-28.73Q29.85-28.43 29.54-28.2 29.23-27.98 28.68-27.98L28.68-27.98Q28.1-27.98 27.5-28.43 26.9-28.88 25.98-29.4 25.05-29.93 23.64-30.38 22.23-30.83 20.05-30.83L20.05-30.83Q17.5-30.83 15.36-29.94 13.23-29.05 11.69-27.4 10.15-25.75 9.29-23.39 8.43-21.03 8.43-18.07L8.43-18.07Q8.43-15.03 9.29-12.65 10.15-10.28 11.63-8.65 13.1-7.03 15.1-6.16 17.1-5.3 19.4-5.3L19.4-5.3Q20.78-5.3 21.89-5.45 23-5.6 23.94-5.93 24.88-6.25 25.71-6.76 26.55-7.28 27.38-8.03L27.38-8.03Q27.63-8.25 27.9-8.39 28.18-8.53 28.5-8.53ZM37.17-36.15L59.97-36.15 59.97-30.8 43.95-30.8 43.95-20.78 56.57-20.78 56.57-15.6 43.95-15.6 43.95-5.38 59.97-5.38 59.97 0 37.17 0 37.17-36.15ZM86.82-32.75L85.17-29.58Q84.9-29.03 84.53-28.8 84.17-28.58 83.67-28.58L83.67-28.58Q83.17-28.58 82.55-28.96 81.92-29.35 81.07-29.83 80.22-30.3 79.08-30.69 77.95-31.08 76.4-31.08L76.4-31.08Q75-31.08 73.96-30.74 72.92-30.4 72.21-29.8 71.5-29.2 71.15-28.36 70.8-27.53 70.8-26.53L70.8-26.53Q70.8-25.25 71.51-24.4 72.22-23.55 73.4-22.95 74.57-22.35 76.07-21.88 77.57-21.4 79.13-20.86 80.7-20.33 82.2-19.61 83.7-18.9 84.87-17.81 86.05-16.73 86.76-15.15 87.47-13.58 87.47-11.33L87.47-11.33Q87.47-8.88 86.63-6.74 85.8-4.6 84.18-3.01 82.57-1.43 80.25-0.51 77.92 0.4 74.92 0.4L74.92 0.4Q73.2 0.4 71.52 0.06 69.84-0.28 68.31-0.9 66.77-1.53 65.43-2.4 64.09-3.28 63.05-4.35L63.05-4.35 65-7.58Q65.27-7.93 65.66-8.16 66.05-8.4 66.52-8.4L66.52-8.4Q67.15-8.4 67.87-7.89 68.59-7.38 69.58-6.75 70.57-6.13 71.91-5.61 73.25-5.1 75.12-5.1L75.12-5.1Q78-5.1 79.57-6.46 81.15-7.83 81.15-10.38L81.15-10.38Q81.15-11.8 80.43-12.7 79.72-13.6 78.55-14.21 77.37-14.83 75.87-15.25 74.37-15.68 72.82-16.18 71.27-16.68 69.77-17.38 68.27-18.07 67.09-19.2 65.92-20.33 65.21-22.01 64.5-23.7 64.5-26.18L64.5-26.18Q64.5-28.15 65.28-30.03 66.07-31.9 67.58-33.35 69.09-34.8 71.3-35.68 73.5-36.55 76.32-36.55L76.32-36.55Q79.52-36.55 82.22-35.55 84.92-34.55 86.82-32.75L86.82-32.75ZM110.19-36.15L124.39 0 119.19 0Q118.32 0 117.75-0.44 117.19-0.88 116.94-1.53L116.94-1.53 114.24-8.9 99.27-8.9 96.57-1.53Q96.37-0.95 95.78-0.48 95.19 0 94.34 0L94.34 0 89.12 0 103.32-36.15 110.19-36.15ZM105.39-25.63L100.99-13.65 112.52-13.65 108.12-25.68Q107.82-26.48 107.45-27.56 107.09-28.65 106.74-29.93L106.74-29.93Q106.39-28.65 106.06-27.55 105.72-26.45 105.39-25.63L105.39-25.63ZM137.94-14.13L135.06-14.13 135.06 0 128.34 0 128.34-36.15 139.37-36.15Q143.06-36.15 145.7-35.39 148.34-34.63 150.03-33.25 151.72-31.88 152.5-29.96 153.29-28.05 153.29-25.75L153.29-25.75Q153.29-23.93 152.75-22.3 152.22-20.68 151.2-19.35 150.19-18.03 148.7-17.03 147.22-16.03 145.31-15.43L145.31-15.43Q146.59-14.7 147.52-13.35L147.52-13.35 156.56 0 150.52 0Q149.64 0 149.03-0.35 148.42-0.7 147.99-1.35L147.99-1.35 140.39-12.93Q139.97-13.58 139.45-13.85 138.94-14.13 137.94-14.13L137.94-14.13ZM135.06-30.95L135.06-18.95 139.27-18.95Q141.16-18.95 142.58-19.43 143.99-19.9 144.9-20.74 145.81-21.58 146.27-22.73 146.72-23.88 146.72-25.25L146.72-25.25Q146.72-28 144.9-29.48 143.09-30.95 139.37-30.95L139.37-30.95 135.06-30.95ZM195.36-8.53L195.36-8.53Q195.91-8.53 196.31-8.1L196.31-8.1 198.96-5.23Q196.76-2.5 193.55-1.05 190.34 0.4 185.84 0.4L185.84 0.4Q181.81 0.4 178.6-0.98 175.39-2.35 173.11-4.8 170.84-7.25 169.62-10.65 168.41-14.05 168.41-18.07L168.41-18.07Q168.41-22.15 169.76-25.54 171.11-28.93 173.56-31.38 176.01-33.83 179.42-35.19 182.84-36.55 186.96-36.55L186.96-36.55Q190.99-36.55 194-35.26 197.01-33.98 199.16-31.85L199.16-31.85 196.91-28.73Q196.71-28.43 196.4-28.2 196.09-27.98 195.54-27.98L195.54-27.98Q194.96-27.98 194.36-28.43 193.76-28.88 192.84-29.4 191.91-29.93 190.5-30.38 189.09-30.83 186.91-30.83L186.91-30.83Q184.36-30.83 182.22-29.94 180.09-29.05 178.55-27.4 177.01-25.75 176.15-23.39 175.29-21.03 175.29-18.07L175.29-18.07Q175.29-15.03 176.15-12.65 177.01-10.28 178.49-8.65 179.96-7.03 181.96-6.16 183.96-5.3 186.26-5.3L186.26-5.3Q187.64-5.3 188.75-5.45 189.86-5.6 190.8-5.93 191.74-6.25 192.57-6.76 193.41-7.28 194.24-8.03L194.24-8.03Q194.49-8.25 194.76-8.39 195.04-8.53 195.36-8.53ZM221.61-36.15L235.81 0 230.61 0Q229.73 0 229.17-0.44 228.61-0.88 228.36-1.53L228.36-1.53 225.66-8.9 210.68-8.9 207.98-1.53Q207.78-0.95 207.2-0.48 206.61 0 205.76 0L205.76 0 200.53 0 214.73-36.15 221.61-36.15ZM216.81-25.63L212.41-13.65 223.93-13.65 219.53-25.68Q219.23-26.48 218.87-27.56 218.51-28.65 218.16-29.93L218.16-29.93Q217.81-28.65 217.47-27.55 217.13-26.45 216.81-25.63L216.81-25.63ZM257.68-15L257.68-15Q258.11-14.2 258.47-13.34 258.83-12.48 259.18-11.6L259.18-11.6Q259.53-12.5 259.91-13.38 260.28-14.25 260.71-15.05L260.71-15.05 271.41-35.08Q271.61-35.45 271.82-35.68 272.03-35.9 272.29-36 272.56-36.1 272.88-36.13 273.21-36.15 273.66-36.15L273.66-36.15 278.73-36.15 278.73 0 272.81 0 272.81-23.35Q272.81-24 272.84-24.78 272.88-25.55 272.96-26.35L272.96-26.35 262.03-5.85Q261.66-5.15 261.06-4.76 260.46-4.38 259.66-4.38L259.66-4.38 258.73-4.38Q257.93-4.38 257.33-4.76 256.73-5.15 256.36-5.85L256.36-5.85 245.28-26.43Q245.38-25.6 245.42-24.81 245.46-24.03 245.46-23.35L245.46-23.35 245.46 0 239.53 0 239.53-36.15 244.61-36.15Q245.06-36.15 245.38-36.13 245.71-36.1 245.97-36 246.23-35.9 246.46-35.68 246.68-35.45 246.88-35.08L246.88-35.08 257.68-15ZM298.03-12.73L292.98-12.73 292.98 0 286.25 0 286.25-36.15 298.03-36.15Q301.65-36.15 304.3-35.3 306.95-34.45 308.68-32.93 310.4-31.4 311.23-29.28 312.05-27.15 312.05-24.63L312.05-24.63Q312.05-22 311.18-19.81 310.3-17.63 308.55-16.05 306.8-14.48 304.18-13.6 301.55-12.73 298.03-12.73L298.03-12.73ZM292.98-30.95L292.98-17.98 298.03-17.98Q299.88-17.98 301.25-18.44 302.63-18.9 303.53-19.76 304.43-20.63 304.88-21.86 305.33-23.1 305.33-24.63L305.33-24.63Q305.33-26.08 304.88-27.25 304.43-28.43 303.53-29.25 302.63-30.08 301.25-30.51 299.88-30.95 298.03-30.95L298.03-30.95 292.98-30.95ZM351.95-18.07L351.95-18.07Q351.95-14.1 350.63-10.71 349.3-7.33 346.9-4.85 344.5-2.38 341.13-0.99 337.75 0.4 333.65 0.4L333.65 0.4Q329.55 0.4 326.16-0.99 322.77-2.38 320.36-4.85 317.95-7.33 316.63-10.71 315.3-14.1 315.3-18.07L315.3-18.07Q315.3-22.05 316.63-25.44 317.95-28.83 320.36-31.3 322.77-33.77 326.16-35.16 329.55-36.55 333.65-36.55L333.65-36.55Q337.75-36.55 341.13-35.15 344.5-33.75 346.9-31.29 349.3-28.83 350.63-25.44 351.95-22.05 351.95-18.07ZM345.05-18.07L345.05-18.07Q345.05-21.05 344.26-23.41 343.48-25.78 342-27.43 340.52-29.08 338.41-29.95 336.3-30.83 333.65-30.83L333.65-30.83Q331-30.83 328.88-29.95 326.75-29.08 325.26-27.43 323.77-25.78 322.98-23.41 322.18-21.05 322.18-18.07L322.18-18.07Q322.18-15.1 322.98-12.74 323.77-10.38 325.26-8.74 326.75-7.1 328.88-6.23 331-5.35 333.65-5.35L333.65-5.35Q336.3-5.35 338.41-6.23 340.52-7.1 342-8.74 343.48-10.38 344.26-12.74 345.05-15.1 345.05-18.07ZM378.27-32.75L376.62-29.58Q376.35-29.03 375.99-28.8 375.62-28.58 375.12-28.58L375.12-28.58Q374.62-28.58 374-28.96 373.37-29.35 372.52-29.83 371.67-30.3 370.54-30.69 369.4-31.08 367.85-31.08L367.85-31.08Q366.45-31.08 365.41-30.74 364.37-30.4 363.66-29.8 362.95-29.2 362.6-28.36 362.25-27.53 362.25-26.53L362.25-26.53Q362.25-25.25 362.96-24.4 363.67-23.55 364.85-22.95 366.02-22.35 367.52-21.88 369.02-21.4 370.59-20.86 372.15-20.33 373.65-19.61 375.15-18.9 376.32-17.81 377.5-16.73 378.21-15.15 378.92-13.58 378.92-11.33L378.92-11.33Q378.92-8.88 378.09-6.74 377.25-4.6 375.64-3.01 374.02-1.43 371.7-0.51 369.37 0.4 366.37 0.4L366.37 0.4Q364.65 0.4 362.97 0.06 361.3-0.28 359.76-0.9 358.22-1.53 356.89-2.4 355.55-3.28 354.5-4.35L354.5-4.35 356.45-7.58Q356.72-7.93 357.11-8.16 357.5-8.4 357.97-8.4L357.97-8.4Q358.6-8.4 359.32-7.89 360.05-7.38 361.04-6.75 362.02-6.13 363.36-5.61 364.7-5.1 366.57-5.1L366.57-5.1Q369.45-5.1 371.02-6.46 372.6-7.83 372.6-10.38L372.6-10.38Q372.6-11.8 371.89-12.7 371.17-13.6 370-14.21 368.82-14.83 367.32-15.25 365.82-15.68 364.27-16.18 362.72-16.68 361.22-17.38 359.72-18.07 358.55-19.2 357.37-20.33 356.66-22.01 355.95-23.7 355.95-26.18L355.95-26.18Q355.95-28.15 356.74-30.03 357.52-31.9 359.04-33.35 360.55-34.8 362.75-35.68 364.95-36.55 367.77-36.55L367.77-36.55Q370.97-36.55 373.67-35.55 376.37-34.55 378.27-32.75L378.27-32.75Z" opacity="1" transform="matrix(1,0,0,1,0,0)" fill="#6671a0" class="undefined-text-0" data-fill-palette-color="primary" id="text-0"></path></svg></g></svg></g></svg></g></svg></g><g transform="matrix(1,0,0,1,138.77499707439165,0)"><svg viewBox="0 0 117.97000585121668 53.516664674085845" height="53.516664674085845" width="117.97000585121668"><g><svg xmlns="http://www.w3.org/2000/svg" xmlns:xlink="http://www.w3.org/1999/xlink" version="1.1" x="8" y="0" viewBox="5 26.381999969482422 90.00099182128906 47.2349967956543" enable-background="new 0 0 100 100" xml:space="preserve" height="53.516664674085845" width="101.97000585121668" class="icon-icon-0" data-fill-palette-color="accent" id="icon-0"><g fill="#6671a0" data-fill-palette-color="accent"><path fill="none" d="M49.999 28.675c0.375 0 0.681-0.304 0.681-0.68v0C50.68 28.37 50.375 28.674 49.999 28.675c-0.375-0.001-0.68-0.305-0.68-0.681s0.305-0.68 0.68-0.68c-0.376 0-0.681 0.305-0.681 0.681S49.623 28.675 49.999 28.675z"></path><path fill="none" d="M54.303 70.682h-8.607c-0.375 0-0.68 0.305-0.68 0.68v0.001c0.001-0.374 0.305-0.679 0.68-0.679h8.607c0.375 0 0.677 0.305 0.68 0.679v-0.001C54.982 70.986 54.678 70.682 54.303 70.682z"></path><path d="M86.627 69.107c0.109-0.226 0.176-0.478 0.176-0.746V28.107c0-0.953-0.771-1.725-1.725-1.725H14.919c-0.953 0-1.725 0.771-1.725 1.725v40.254c0 0.271 0.065 0.521 0.176 0.746H5v2.785c0 0.949 0.773 1.725 1.727 1.725h86.546c0.953 0 1.728-0.773 1.728-1.725v-2.785H86.627zM49.999 27.314c0.375 0 0.681 0.305 0.681 0.68v0 0c0 0.376-0.306 0.68-0.681 0.68-0.376 0-0.681-0.304-0.681-0.68S49.623 27.314 49.999 27.314zM16.143 29.709h67.712v36.568H16.143V29.709zM54.982 71.363c0 0.378-0.305 0.683-0.68 0.683h-8.607c-0.375 0-0.68-0.305-0.68-0.683v-0.001-0.001c0-0.375 0.305-0.68 0.68-0.68h8.607c0.375 0 0.68 0.305 0.68 0.68V71.363L54.982 71.363z" fill="#6671a0" data-fill-palette-color="accent"></path><polygon points="31.736,50.861 44.194,56.648 44.194,53.898 34.772,49.771 34.772,49.719 44.194,45.592 44.194,42.84    31.736,48.628  " fill="#6671a0" data-fill-palette-color="accent"></polygon><polygon points="46.119,57.688 48.74,57.688 54.295,38.87 51.673,38.87  " fill="#6671a0" data-fill-palette-color="accent"></polygon><polygon points="55.801,45.592 65.432,49.719 65.432,49.771 55.801,53.898 55.801,56.648 68.26,50.939 68.26,48.551 55.801,42.84     " fill="#6671a0" data-fill-palette-color="accent"></polygon></g></svg></g></svg></g><g><rect width="138.77499707439165" height="3.492176591539078" y="49.02448808254677" x="256.74500292560833" fill="#6671a0" data-fill-palette-color="accent"></rect><rect width="138.77499707439165" height="3.492176591539078" y="49.02448808254677" x="0" fill="#6671a0" data-fill-palette-color="accent"></rect><rect width="138.77499707439165" height="3.492176591539078" y="42.04013489946861" x="256.74500292560833" fill="#6671a0" data-fill-palette-color="accent"></rect><rect width="138.77499707439165" height="3.492176591539078" y="42.04013489946861" x="0" fill="#6671a0" data-fill-palette-color="accent"></rect></g></svg></g><defs></defs></svg><rect width="395.52" height="101.3825581644515" fill="none" stroke="none" visibility="hidden"></rect></g></svg></g></svg>